<svg xmlns="http://www.w3.org/2000/svg" width="1200" height="700" viewBox="0 0 1200 700" role="img" aria-labelledby="title desc">
  <title id="title">Interaction Understanding &amp; Robot Learning</title>
  <desc id="desc">Temporary layout placeholder with a simple line illustration. Replace with a research image later.</desc>
  <rect width="1200" height="700" fill="#f5f6f7"/>
  <rect x="24" y="24" width="1152" height="652" rx="12" fill="none" stroke="#dce1e5" stroke-width="2"/>
  <g fill="none" stroke="#647b8b" stroke-width="6" stroke-linecap="round" stroke-linejoin="round"><circle cx="465" cy="205" r="30"/><path d="M465 235v100m0-65 70 45 55-40m-125 60-45 75m45-75 45 75M650 410h150M725 410v-70l-65-55 50-65m0 0 40-10m-40 10 5-40"/><circle cx="725" cy="340" r="12"/><circle cx="660" cy="285" r="12"/><rect x="575" y="300" width="55" height="55" rx="3"/></g>
  <text text-anchor="middle" fill="#33434e" font-family="Arial, Helvetica, sans-serif" font-size="42" font-weight="500"><tspan x="600" y="525">Interaction Understanding</tspan><tspan x="600" y="577">&amp; Robot Learning</tspan></text>
  <text x="600" y="635" text-anchor="middle" fill="#7b858d" font-family="Arial, Helvetica, sans-serif" font-size="20" letter-spacing="3">TEMPORARY PLACEHOLDER</text>
</svg>
